<?xml version="1.0" encoding="utf-8"?>
<!-- Generated by IcoMoon.io -->
<!DOCTYPE svg PUBLIC "-//W3C//DTD SVG 1.1//EN" "http://www.w3.org/Graphics/SVG/1.1/DTD/svg11.dtd">
<svg version="1.1" xmlns="http://www.w3.org/2000/svg" xmlns:xlink="http://www.w3.org/1999/xlink" width="23" height="23" viewBox="0 0 23 23">
<path fill="#fff" d="M2.875 7.188v14.375c0 0.791 0.647 1.438 1.438 1.438h12.938c0.791 0 1.438-0.647 1.438-1.438v-14.375h-15.813zM7.188 20.125h-1.438v-10.063h1.438v10.063zM10.063 20.125h-1.438v-10.063h1.438v10.063zM12.938 20.125h-1.438v-10.063h1.438v10.063zM15.813 20.125h-1.438v-10.063h1.438v10.063z"></path>
<path fill="#fff" d="M19.047 2.875h-4.672v-1.797c0-0.593-0.485-1.078-1.078-1.078h-5.031c-0.593 0-1.078 0.485-1.078 1.078v1.797h-4.672c-0.593 0-1.078 0.485-1.078 1.078v1.797h18.688v-1.797c0-0.593-0.485-1.078-1.078-1.078zM12.938 2.875h-4.313v-1.419h4.313v1.419z"></path>
</svg>
