<?xml version="1.0" encoding="utf-8"?>
<!-- Generated by IcoMoon.io -->
<!DOCTYPE svg PUBLIC "-//W3C//DTD SVG 1.1//EN" "http://www.w3.org/Graphics/SVG/1.1/DTD/svg11.dtd">
<svg version="1.1" xmlns="http://www.w3.org/2000/svg" xmlns:xlink="http://www.w3.org/1999/xlink" width="23" height="23" viewBox="0 0 23 23">
<path fill="#fff" d="M23 8.625h-8.625l3.224-3.224c-1.629-1.629-3.795-2.526-6.099-2.526s-4.47 0.897-6.099 2.526c-1.629 1.629-2.526 3.795-2.526 6.099s0.897 4.47 2.526 6.099c1.629 1.629 3.795 2.526 6.099 2.526s4.47-0.897 6.099-2.526c0.136-0.136 0.266-0.276 0.392-0.419l2.163 1.893c-2.108 2.407-5.203 3.927-8.654 3.927-6.351 0-11.5-5.149-11.5-11.5s5.149-11.5 11.5-11.5c3.176 0 6.050 1.288 8.131 3.369l3.369-3.369v8.625z"></path>
</svg>
