<?xml version="1.0" encoding="utf-8"?>
<!-- Generated by IcoMoon.io -->
<!DOCTYPE svg PUBLIC "-//W3C//DTD SVG 1.1//EN" "http://www.w3.org/Graphics/SVG/1.1/DTD/svg11.dtd">
<svg version="1.1" xmlns="http://www.w3.org/2000/svg" xmlns:xlink="http://www.w3.org/1999/xlink" width="23" height="23" viewBox="0 0 23 23">
<path fill="#fff" d="M17.25 15.813h-2.28l-3.594-3.594 3.594-3.594h2.28v3.594l5.031-5.031-5.031-5.031v3.594h-2.875c-0.381 0-0.747 0.151-1.016 0.421l-4.015 4.015-4.015-4.015c-0.27-0.27-0.635-0.421-1.016-0.421h-4.313v2.875h3.717l3.594 3.594-3.594 3.594h-3.717v2.875h4.313c0.381 0 0.747-0.151 1.016-0.421l4.015-4.015 4.015 4.015c0.27 0.27 0.635 0.421 1.016 0.421h2.875v3.594l5.031-5.031-5.031-5.031v3.594z"></path>
</svg>
