<?xml version="1.0" encoding="utf-8"?>
<!-- Generated by IcoMoon.io -->
<!DOCTYPE svg PUBLIC "-//W3C//DTD SVG 1.1//EN" "http://www.w3.org/Graphics/SVG/1.1/DTD/svg11.dtd">
<svg version="1.1" xmlns="http://www.w3.org/2000/svg" xmlns:xlink="http://www.w3.org/1999/xlink" width="23" height="23" viewBox="0 0 23 23">
<path fill="#fff" d="M21.563 13.907v1.906h-1.906l-2.407-2.407-2.407 2.407h-1.906v-1.906l2.407-2.407-2.407-2.407v-1.906h1.906l2.407 2.407 2.407-2.407h1.906v1.906l-2.407 2.407 2.407 2.407z"></path>
<path fill="#fff" d="M9.344 21.563c-0.187 0-0.371-0.073-0.508-0.211l-5.539-5.539h-2.577c-0.397 0-0.719-0.322-0.719-0.719v-7.188c0-0.397 0.322-0.719 0.719-0.719h2.577l5.539-5.539c0.206-0.206 0.515-0.267 0.783-0.156s0.444 0.373 0.444 0.664v18.688c0 0.291-0.175 0.553-0.444 0.664-0.089 0.037-0.182 0.055-0.275 0.055z"></path>
</svg>
