<?xml version="1.0" encoding="utf-8"?>
<!-- Generated by IcoMoon.io -->
<!DOCTYPE svg PUBLIC "-//W3C//DTD SVG 1.1//EN" "http://www.w3.org/Graphics/SVG/1.1/DTD/svg11.dtd">
<svg version="1.1" xmlns="http://www.w3.org/2000/svg" xmlns:xlink="http://www.w3.org/1999/xlink" width="17" height="17" viewBox="0 0 17 17">
<path fill="#fff" d="M15.938 10.279v1.409h-1.409l-1.779-1.779-1.779 1.779h-1.409v-1.409l1.779-1.779-1.779-1.779v-1.409h1.409l1.779 1.779 1.779-1.779h1.409v1.409l-1.779 1.779 1.779 1.779z"></path>
<path fill="#fff" d="M6.906 15.938c-0.138 0-0.274-0.054-0.376-0.156l-4.094-4.094h-1.905c-0.293 0-0.531-0.238-0.531-0.531v-5.313c0-0.293 0.238-0.531 0.531-0.531h1.905l4.094-4.094c0.152-0.152 0.38-0.197 0.579-0.115s0.328 0.276 0.328 0.491v13.813c0 0.215-0.129 0.409-0.328 0.491-0.066 0.027-0.135 0.040-0.203 0.040z"></path>
</svg>
