<?xml version="1.0" encoding="utf-8"?>
<!-- Generated by IcoMoon.io -->
<!DOCTYPE svg PUBLIC "-//W3C//DTD SVG 1.1//EN" "http://www.w3.org/Graphics/SVG/1.1/DTD/svg11.dtd">
<svg version="1.1" xmlns="http://www.w3.org/2000/svg" xmlns:xlink="http://www.w3.org/1999/xlink" width="17" height="17" viewBox="0 0 17 17">
<path fill="#fff" d="M11.945 13.805c-0.204 0-0.408-0.078-0.563-0.233-0.311-0.311-0.311-0.816 0-1.127 2.175-2.175 2.175-5.714 0-7.889-0.311-0.311-0.311-0.816 0-1.127s0.816-0.311 1.127 0c1.355 1.355 2.101 3.156 2.101 5.071s-0.746 3.717-2.101 5.071c-0.156 0.156-0.36 0.233-0.563 0.233v0zM9.115 12.302c-0.204 0-0.408-0.078-0.563-0.233-0.311-0.311-0.311-0.816 0-1.127 1.346-1.346 1.346-3.537 0-4.883-0.311-0.311-0.311-0.816 0-1.127s0.816-0.311 1.127 0c1.968 1.968 1.968 5.17 0 7.137-0.156 0.156-0.36 0.233-0.563 0.233z"></path>
<path fill="#fff" d="M6.906 15.938c-0.138 0-0.274-0.054-0.376-0.156l-4.094-4.094h-1.905c-0.293 0-0.531-0.238-0.531-0.531v-5.313c0-0.293 0.238-0.531 0.531-0.531h1.905l4.094-4.094c0.152-0.152 0.38-0.197 0.579-0.115s0.328 0.276 0.328 0.491v13.813c0 0.215-0.129 0.409-0.328 0.491-0.066 0.027-0.135 0.040-0.203 0.040z"></path>
</svg>
